<svg width="50" height="50" viewBox="0 0 50 50" fill="none" xmlns="http://www.w3.org/2000/svg">
<g clip-path="url(#clip0_20_479)">
<mask id="mask0_20_479" style="mask-type:luminance" maskUnits="userSpaceOnUse" x="0" y="0" width="50" height="50">
<path d="M50 0H0V50H50V0Z" fill="white"/>
</mask>
<g mask="url(#mask0_20_479)">
<path d="M46.6 24.975C46.6 36.9182 36.9181 46.6 24.975 46.6C13.0318 46.6 3.34998 36.9182 3.34998 24.975C3.34998 13.0319 13.0318 3.35001 24.975 3.35001C36.9181 3.35001 46.6 13.0319 46.6 24.975Z" fill="#0088CC"/>
<path d="M24.7434 41.0978C23.1525 41.0978 21.7481 40.6959 20.53 39.8921C19.312 39.0801 18.3591 37.9366 17.6714 36.4617C16.9836 34.9786 16.6397 33.2261 16.6397 31.2043C16.6397 29.1991 16.9836 27.459 17.6714 25.9841C18.3591 24.5092 19.3161 23.3699 20.5424 22.5661C21.7688 21.7624 23.1857 21.3605 24.7932 21.3605C26.0361 21.3605 27.0179 21.5677 27.7388 21.982C28.468 22.388 29.0232 22.852 29.4043 23.374C29.7937 23.8878 30.0962 24.3103 30.3116 24.6418H30.5602V15.2455H33.4934V40.7H30.6596V37.7668H30.3116C30.0962 38.1148 29.7896 38.554 29.3919 39.0843C28.9942 39.6063 28.4266 40.0744 27.6891 40.4887C26.9517 40.8947 25.9698 41.0978 24.7434 41.0978ZM25.1412 38.4628C26.3178 38.4628 27.3121 38.1562 28.1241 37.5431C28.9361 36.9216 29.5535 36.064 29.976 34.9703C30.3986 33.8682 30.6099 32.5963 30.6099 31.1546C30.6099 29.7294 30.4028 28.4823 29.9885 27.4134C29.5742 26.3363 28.961 25.4994 28.149 24.9028C27.337 24.2979 26.3344 23.9955 25.1412 23.9955C23.8983 23.9955 22.8625 24.3145 22.0339 24.9525C21.2136 25.5822 20.5963 26.4398 20.182 27.5253C19.776 28.6025 19.573 29.8122 19.573 31.1546C19.573 32.5135 19.7801 33.7481 20.1944 34.8584C20.617 35.9604 21.2385 36.8388 22.0588 37.4933C22.8874 38.1397 23.9148 38.4628 25.1412 38.4628Z" fill="white"/>
<path d="M16.4682 31.05V9.2318H19.7068V12.5272H19.9341C20.3318 11.4477 21.0515 10.5718 22.0932 9.89945C23.1349 9.2271 24.3091 8.8909 25.6159 8.8909C25.8621 8.8909 26.1699 8.89565 26.5392 8.9051C26.9085 8.9146 27.1879 8.9288 27.3772 8.94775V12.3568C27.2636 12.3284 27.0032 12.2858 26.596 12.229C26.1983 12.1627 25.7769 12.1295 25.3318 12.1295C24.2712 12.1295 23.3243 12.3521 22.4909 12.7971C21.6671 13.2327 21.0137 13.8389 20.5307 14.6153C20.0572 15.3824 19.8205 16.2584 19.8205 17.2432V31.05H16.4682Z" fill="white"/>
</g>
</g>
<defs>
<clipPath id="clip0_20_479">
<rect width="50" height="50" fill="white"/>
</clipPath>
</defs>
</svg>
