<svg width="30" height="30" viewBox="0 0 30 30" fill="none" xmlns="http://www.w3.org/2000/svg">
<g clip-path="url(#clip0_58_242)">
<path fill-rule="evenodd" clip-rule="evenodd" d="M14.9553 0.306152C6.68541 0.306152 0 7.04085 0 15.3726C0 22.0326 4.28357 27.6701 10.226 29.6654C10.969 29.8154 11.2411 29.3413 11.2411 28.9424C11.2411 28.5931 11.2166 27.3958 11.2166 26.1484C7.05643 27.0466 6.1901 24.3524 6.1901 24.3524C5.52153 22.6063 4.53092 22.1575 4.53092 22.1575C3.16929 21.2345 4.6301 21.2345 4.6301 21.2345C6.14051 21.3343 6.93306 22.7811 6.93306 22.7811C8.2699 25.0757 10.4241 24.4274 11.2907 24.0282C11.4144 23.0553 11.8108 22.3819 12.2317 22.0078C8.91367 21.6585 5.42265 20.3615 5.42265 14.5742C5.42265 12.9279 6.01653 11.5809 6.95755 10.5334C6.80908 10.1593 6.28898 8.61248 7.10633 6.54217C7.10633 6.54217 8.36908 6.14299 11.2163 8.0887C12.4353 7.75891 13.6925 7.59114 14.9553 7.58972C16.2181 7.58972 17.5053 7.76452 18.694 8.0887C21.5415 6.14299 22.8043 6.54217 22.8043 6.54217C23.6216 8.61248 23.1012 10.1593 22.9528 10.5334C23.9186 11.5809 24.488 12.9279 24.488 14.5742C24.488 20.3615 20.9969 21.6334 17.6541 22.0078C18.199 22.4817 18.6692 23.3795 18.6692 24.8015C18.6692 26.8219 18.6447 28.4434 18.6447 28.9421C18.6447 29.3413 18.9171 29.8154 19.6598 29.6657C25.6022 27.6698 29.8858 22.0326 29.8858 15.3726C29.9103 7.04085 23.2004 0.306152 14.9553 0.306152Z" fill="#24292F"/>
</g>
<defs>
<clipPath id="clip0_58_242">
<rect width="30" height="29.3878" fill="white" transform="translate(0 0.306152)"/>
</clipPath>
</defs>
</svg>
