<?xml version="1.0" standalone="no"?>
<!DOCTYPE svg PUBLIC "-//W3C//DTD SVG 20010904//EN"
 "http://www.w3.org/TR/2001/REC-SVG-20010904/DTD/svg10.dtd">
<svg version="1.0" xmlns="http://www.w3.org/2000/svg"
 width="249.000000pt" height="185.000000pt" viewBox="0 0 249.000000 185.000000"
 preserveAspectRatio="xMidYMid meet">

<g transform="translate(0.000000,185.000000) scale(0.100000,-0.100000)"
fill="#000000" stroke="none">
<path d="M0 925 l0 -925 1245 0 1245 0 0 925 0 925 -1245 0 -1245 0 0 -925z
m1365 610 c174 -44 329 -169 403 -325 22 -47 43 -97 46 -112 l6 -28 -68 0 -69
0 -38 78 c-49 99 -119 168 -222 219 -77 38 -77 38 -202 38 -120 0 -129 -1
-191 -31 -118 -57 -211 -152 -247 -255 l-18 -49 -72 0 -72 0 15 53 c39 130
157 278 279 347 130 74 312 100 450 65z m-25 -265 c25 -6 55 -13 68 -15 42
-10 113 -86 148 -160 32 -65 34 -76 34 -171 0 -97 -1 -104 -37 -175 -32 -61
-48 -81 -94 -113 -65 -43 -126 -55 -306 -56 l-103 0 0 49 0 48 138 5 c139 5
193 17 234 55 40 36 25 41 -144 45 -152 3 -166 6 -213 30 -27 14 -59 35 -69
47 l-19 21 256 0 257 0 0 40 0 40 -217 0 c-242 0 -299 9 -367 58 -22 16 -41
33 -43 38 -2 5 39 9 89 9 l93 0 3 108 3 107 122 0 c67 0 142 -5 167 -10z
m-590 -330 l0 -50 -70 0 -70 0 0 50 0 50 70 0 70 0 0 -50z m1080 0 l0 -50 -67
0 -68 0 0 50 0 50 68 0 67 0 0 -50z m-1047 -179 c9 -27 37 -76 61 -108 211
-280 652 -236 802 82 l36 75 69 0 69 0 -6 -27 c-3 -16 -24 -66 -46 -113 -74
-156 -229 -281 -403 -325 -138 -35 -314 -10 -445 62 -126 70 -245 217 -284
351 l-15 52 72 0 72 0 18 -49z"/>
<path d="M1152 1124 l3 -59 148 -3 c164 -3 172 1 115 55 -50 47 -75 56 -176
61 l-93 5 3 -59z"/>
</g>
</svg>
